<mxfile host="app.diagrams.net" modified="2022-01-22T08:16:18.100Z" agent="5.0 (Windows NT 10.0; Win64; x64) AppleWebKit/537.36 (KHTML, like Gecko) Chrome/97.0.4692.71 Safari/537.36" etag="A6b65JxJTXYWusE8sqdm" version="16.4.2" type="github">
  <diagram id="OjNTn0tOpsE4KfgikNzZ" name="Page-1">
    <mxGraphModel dx="2249" dy="794" grid="1" gridSize="10" guides="1" tooltips="1" connect="1" arrows="1" fold="1" page="1" pageScale="1" pageWidth="827" pageHeight="1169" math="0" shadow="0">
      <root>
        <mxCell id="0" />
        <mxCell id="1" parent="0" />
        <mxCell id="VZDu2zD1H86c9q05FF-y-11" value="" style="edgeStyle=orthogonalEdgeStyle;rounded=0;orthogonalLoop=1;jettySize=auto;html=1;fontSize=14;" parent="1" source="VZDu2zD1H86c9q05FF-y-1" target="VZDu2zD1H86c9q05FF-y-5" edge="1">
          <mxGeometry relative="1" as="geometry" />
        </mxCell>
        <mxCell id="VZDu2zD1H86c9q05FF-y-1" value="汽车经纪人" style="shape=umlActor;verticalLabelPosition=bottom;verticalAlign=top;html=1;outlineConnect=0;fontSize=14;fillColor=#ffe6cc;strokeColor=#d79b00;" parent="1" vertex="1">
          <mxGeometry x="-20" y="260" width="30" height="60" as="geometry" />
        </mxCell>
        <mxCell id="VZDu2zD1H86c9q05FF-y-12" value="" style="edgeStyle=orthogonalEdgeStyle;rounded=0;orthogonalLoop=1;jettySize=auto;html=1;fontSize=14;" parent="1" source="VZDu2zD1H86c9q05FF-y-5" target="VZDu2zD1H86c9q05FF-y-6" edge="1">
          <mxGeometry relative="1" as="geometry" />
        </mxCell>
        <mxCell id="VZDu2zD1H86c9q05FF-y-5" value="实名认证" style="rounded=1;whiteSpace=wrap;html=1;fontSize=14;fillColor=#f5f5f5;fontColor=#333333;strokeColor=#666666;" parent="1" vertex="1">
          <mxGeometry x="60" y="260" width="120" height="60" as="geometry" />
        </mxCell>
        <mxCell id="VZDu2zD1H86c9q05FF-y-17" value="" style="edgeStyle=orthogonalEdgeStyle;rounded=0;orthogonalLoop=1;jettySize=auto;html=1;fontSize=14;" parent="1" source="VZDu2zD1H86c9q05FF-y-6" target="VZDu2zD1H86c9q05FF-y-16" edge="1">
          <mxGeometry relative="1" as="geometry" />
        </mxCell>
        <mxCell id="VZDu2zD1H86c9q05FF-y-6" value="保证金充值" style="rounded=1;whiteSpace=wrap;html=1;fontSize=14;fillColor=#f5f5f5;fontColor=#333333;strokeColor=#666666;" parent="1" vertex="1">
          <mxGeometry x="220" y="260" width="120" height="60" as="geometry" />
        </mxCell>
        <mxCell id="VZDu2zD1H86c9q05FF-y-14" value="" style="edgeStyle=orthogonalEdgeStyle;rounded=0;orthogonalLoop=1;jettySize=auto;html=1;fontSize=14;" parent="1" source="VZDu2zD1H86c9q05FF-y-7" target="VZDu2zD1H86c9q05FF-y-8" edge="1">
          <mxGeometry relative="1" as="geometry" />
        </mxCell>
        <mxCell id="VZDu2zD1H86c9q05FF-y-7" value="审核通过" style="rounded=1;whiteSpace=wrap;html=1;fontSize=14;fillColor=#f5f5f5;fontColor=#333333;strokeColor=#666666;" parent="1" vertex="1">
          <mxGeometry x="540" y="260" width="120" height="60" as="geometry" />
        </mxCell>
        <mxCell id="VZDu2zD1H86c9q05FF-y-8" value="结束" style="ellipse;whiteSpace=wrap;html=1;aspect=fixed;fillColor=#d5e8d4;strokeColor=#82b366;fontSize=14;" parent="1" vertex="1">
          <mxGeometry x="710" y="250" width="80" height="80" as="geometry" />
        </mxCell>
        <mxCell id="VZDu2zD1H86c9q05FF-y-9" value="经纪人可以登录后台" style="shape=callout;whiteSpace=wrap;html=1;perimeter=calloutPerimeter;position2=0.25;fontSize=14;" parent="1" vertex="1">
          <mxGeometry x="750" y="170" width="150" height="80" as="geometry" />
        </mxCell>
        <mxCell id="VZDu2zD1H86c9q05FF-y-15" value="" style="edgeStyle=orthogonalEdgeStyle;rounded=0;orthogonalLoop=1;jettySize=auto;html=1;fontSize=14;" parent="1" source="VZDu2zD1H86c9q05FF-y-10" target="VZDu2zD1H86c9q05FF-y-7" edge="1">
          <mxGeometry relative="1" as="geometry" />
        </mxCell>
        <mxCell id="VZDu2zD1H86c9q05FF-y-10" value="管理员" style="shape=umlActor;verticalLabelPosition=bottom;verticalAlign=top;html=1;outlineConnect=0;fillColor=#dae8fc;strokeColor=#6c8ebf;fontSize=14;horizontal=1;" parent="1" vertex="1">
          <mxGeometry x="585" y="360" width="30" height="60" as="geometry" />
        </mxCell>
        <mxCell id="VZDu2zD1H86c9q05FF-y-18" value="" style="edgeStyle=orthogonalEdgeStyle;rounded=0;orthogonalLoop=1;jettySize=auto;html=1;fontSize=14;" parent="1" source="VZDu2zD1H86c9q05FF-y-16" target="VZDu2zD1H86c9q05FF-y-7" edge="1">
          <mxGeometry relative="1" as="geometry" />
        </mxCell>
        <mxCell id="VZDu2zD1H86c9q05FF-y-16" value="选择关联汽车" style="rounded=1;whiteSpace=wrap;html=1;fontSize=14;fillColor=#f5f5f5;fontColor=#333333;strokeColor=#666666;" parent="1" vertex="1">
          <mxGeometry x="370" y="260" width="120" height="60" as="geometry" />
        </mxCell>
        <mxCell id="41ozPT8D4ZdPyhtJS3lG-7" value="" style="edgeStyle=orthogonalEdgeStyle;rounded=0;orthogonalLoop=1;jettySize=auto;html=1;" parent="1" source="41ozPT8D4ZdPyhtJS3lG-2" target="41ozPT8D4ZdPyhtJS3lG-6" edge="1">
          <mxGeometry relative="1" as="geometry" />
        </mxCell>
        <mxCell id="41ozPT8D4ZdPyhtJS3lG-2" value="汽车经纪人" style="shape=umlActor;verticalLabelPosition=bottom;verticalAlign=top;html=1;outlineConnect=0;fontSize=14;fillColor=#ffe6cc;strokeColor=#d79b00;" parent="1" vertex="1">
          <mxGeometry x="-20" y="470" width="30" height="60" as="geometry" />
        </mxCell>
        <mxCell id="41ozPT8D4ZdPyhtJS3lG-23" value="" style="edgeStyle=orthogonalEdgeStyle;rounded=0;orthogonalLoop=1;jettySize=auto;html=1;" parent="1" source="41ozPT8D4ZdPyhtJS3lG-6" target="41ozPT8D4ZdPyhtJS3lG-9" edge="1">
          <mxGeometry relative="1" as="geometry">
            <mxPoint x="220" y="500" as="targetPoint" />
          </mxGeometry>
        </mxCell>
        <mxCell id="41ozPT8D4ZdPyhtJS3lG-6" value="查看用户申请" style="whiteSpace=wrap;html=1;fontSize=14;verticalAlign=middle;fillColor=#ffe6cc;strokeColor=#d79b00;" parent="1" vertex="1">
          <mxGeometry x="45" y="470" width="120" height="60" as="geometry" />
        </mxCell>
        <mxCell id="41ozPT8D4ZdPyhtJS3lG-25" value="" style="edgeStyle=orthogonalEdgeStyle;rounded=0;orthogonalLoop=1;jettySize=auto;html=1;" parent="1" source="41ozPT8D4ZdPyhtJS3lG-9" target="41ozPT8D4ZdPyhtJS3lG-10" edge="1">
          <mxGeometry relative="1" as="geometry" />
        </mxCell>
        <mxCell id="41ozPT8D4ZdPyhtJS3lG-9" value="修改车子价格" style="whiteSpace=wrap;html=1;fontSize=14;verticalAlign=middle;fillColor=#ffe6cc;strokeColor=#d79b00;" parent="1" vertex="1">
          <mxGeometry x="294" y="470" width="120" height="60" as="geometry" />
        </mxCell>
        <mxCell id="41ozPT8D4ZdPyhtJS3lG-26" value="" style="edgeStyle=orthogonalEdgeStyle;rounded=0;orthogonalLoop=1;jettySize=auto;html=1;" parent="1" source="41ozPT8D4ZdPyhtJS3lG-10" target="41ozPT8D4ZdPyhtJS3lG-11" edge="1">
          <mxGeometry relative="1" as="geometry" />
        </mxCell>
        <mxCell id="41ozPT8D4ZdPyhtJS3lG-10" value="发送试驾消息通知" style="whiteSpace=wrap;html=1;fontSize=14;verticalAlign=middle;fillColor=#ffe6cc;strokeColor=#d79b00;" parent="1" vertex="1">
          <mxGeometry x="550" y="470" width="120" height="60" as="geometry" />
        </mxCell>
        <mxCell id="41ozPT8D4ZdPyhtJS3lG-11" value="结束" style="ellipse;whiteSpace=wrap;html=1;aspect=fixed;fillColor=#d5e8d4;strokeColor=#82b366;fontSize=14;" parent="1" vertex="1">
          <mxGeometry x="710" y="460" width="80" height="80" as="geometry" />
        </mxCell>
        <mxCell id="41ozPT8D4ZdPyhtJS3lG-14" value="" style="edgeStyle=orthogonalEdgeStyle;rounded=0;orthogonalLoop=1;jettySize=auto;html=1;" parent="1" source="41ozPT8D4ZdPyhtJS3lG-12" target="41ozPT8D4ZdPyhtJS3lG-13" edge="1">
          <mxGeometry relative="1" as="geometry" />
        </mxCell>
        <mxCell id="41ozPT8D4ZdPyhtJS3lG-12" value="购车者&amp;nbsp;" style="shape=umlActor;verticalLabelPosition=bottom;verticalAlign=top;html=1;outlineConnect=0;fontSize=14;fillColor=#dae8fc;strokeColor=#6c8ebf;" parent="1" vertex="1">
          <mxGeometry x="-20" y="610" width="30" height="60" as="geometry" />
        </mxCell>
        <mxCell id="41ozPT8D4ZdPyhtJS3lG-19" value="" style="edgeStyle=orthogonalEdgeStyle;rounded=0;orthogonalLoop=1;jettySize=auto;html=1;" parent="1" source="41ozPT8D4ZdPyhtJS3lG-13" target="41ozPT8D4ZdPyhtJS3lG-15" edge="1">
          <mxGeometry relative="1" as="geometry" />
        </mxCell>
        <mxCell id="41ozPT8D4ZdPyhtJS3lG-13" value="搜索汽车" style="whiteSpace=wrap;html=1;fontSize=14;verticalAlign=middle;fillColor=#dae8fc;strokeColor=#6c8ebf;" parent="1" vertex="1">
          <mxGeometry x="45" y="610" width="120" height="60" as="geometry" />
        </mxCell>
        <mxCell id="41ozPT8D4ZdPyhtJS3lG-20" value="" style="edgeStyle=orthogonalEdgeStyle;rounded=0;orthogonalLoop=1;jettySize=auto;html=1;" parent="1" source="41ozPT8D4ZdPyhtJS3lG-15" target="41ozPT8D4ZdPyhtJS3lG-16" edge="1">
          <mxGeometry relative="1" as="geometry" />
        </mxCell>
        <mxCell id="41ozPT8D4ZdPyhtJS3lG-15" value="发起试驾申请" style="whiteSpace=wrap;html=1;fontSize=14;verticalAlign=middle;fillColor=#dae8fc;strokeColor=#6c8ebf;" parent="1" vertex="1">
          <mxGeometry x="220" y="610" width="120" height="60" as="geometry" />
        </mxCell>
        <mxCell id="41ozPT8D4ZdPyhtJS3lG-21" value="" style="edgeStyle=orthogonalEdgeStyle;rounded=0;orthogonalLoop=1;jettySize=auto;html=1;" parent="1" source="41ozPT8D4ZdPyhtJS3lG-16" target="41ozPT8D4ZdPyhtJS3lG-17" edge="1">
          <mxGeometry relative="1" as="geometry" />
        </mxCell>
        <mxCell id="41ozPT8D4ZdPyhtJS3lG-16" value="查看预约受理i情况和个人消息" style="whiteSpace=wrap;html=1;fontSize=14;verticalAlign=middle;fillColor=#dae8fc;strokeColor=#6c8ebf;" parent="1" vertex="1">
          <mxGeometry x="390" y="610" width="120" height="60" as="geometry" />
        </mxCell>
        <mxCell id="41ozPT8D4ZdPyhtJS3lG-22" value="" style="edgeStyle=orthogonalEdgeStyle;rounded=0;orthogonalLoop=1;jettySize=auto;html=1;exitX=0;exitY=0.5;exitDx=0;exitDy=0;" parent="1" source="mNpqpKfRuckvNKYTNjAT-1" target="41ozPT8D4ZdPyhtJS3lG-18" edge="1">
          <mxGeometry relative="1" as="geometry" />
        </mxCell>
        <mxCell id="mNpqpKfRuckvNKYTNjAT-2" value="" style="edgeStyle=orthogonalEdgeStyle;rounded=0;orthogonalLoop=1;jettySize=auto;html=1;" edge="1" parent="1" source="41ozPT8D4ZdPyhtJS3lG-17" target="mNpqpKfRuckvNKYTNjAT-1">
          <mxGeometry relative="1" as="geometry" />
        </mxCell>
        <mxCell id="41ozPT8D4ZdPyhtJS3lG-17" value="线下试驾" style="whiteSpace=wrap;html=1;fontSize=14;verticalAlign=middle;fillColor=#dae8fc;strokeColor=#6c8ebf;" parent="1" vertex="1">
          <mxGeometry x="555" y="610" width="120" height="60" as="geometry" />
        </mxCell>
        <mxCell id="41ozPT8D4ZdPyhtJS3lG-18" value="结束" style="ellipse;whiteSpace=wrap;html=1;aspect=fixed;fillColor=#d5e8d4;strokeColor=#82b366;fontSize=14;" parent="1" vertex="1">
          <mxGeometry x="400" y="690" width="80" height="80" as="geometry" />
        </mxCell>
        <mxCell id="mNpqpKfRuckvNKYTNjAT-1" value="和经纪人磋商价格；支付购买" style="whiteSpace=wrap;html=1;fontSize=14;verticalAlign=middle;fillColor=#dae8fc;strokeColor=#6c8ebf;" vertex="1" parent="1">
          <mxGeometry x="555" y="700" width="120" height="60" as="geometry" />
        </mxCell>
      </root>
    </mxGraphModel>
  </diagram>
</mxfile>
